Coordinates
version=1
nRows=12
nColumns=24
inDegrees=yes

Units are S.I. units (second, meters, Newtons, ...)
Angles are in degrees.

endheader
time	pelvis_tilt	pelvis_list	pelvis_rotation	pelvis_tx	pelvis_ty	pelvis_tz	hip_flexion_r	hip_adduction_r	hip_rotation_r	knee_angle_r	ankle_angle_r	subtalar_angle_r	mtp_angle_r	hip_flexion_l	hip_adduction_l	hip_rotation_l	knee_angle_l	ankle_angle_l	subtalar_angle_l	mtp_angle_l	lumbar_extension	lumbar_bending	lumbar_rotation
      0.56600000	     -1.22930925	      2.99580253	     12.49956787	     -0.81972701	      0.87165207	      0.27475791	     32.65303233	     -4.89395663	    -11.38694013	     -9.43219889	      8.45157802	      0.26256570	      2.34923217	    -20.94642059	      2.11056594	      4.65506628	    -11.52891957	     15.28197037	      5.25575384	     16.84130356	     -5.84997281	     -5.11920933	    -11.75939123
      0.57016667	     -1.18254436	      2.84774752	     12.54204458	     -0.81329521	      0.87099898	      0.27497028	     32.59570336	     -4.65458625	    -11.32611495	     -9.99616446	      8.19977006	     -0.13405349	      2.31427250	    -21.02609123	      1.82499879	      4.51850649	    -12.24221777	     15.04393684	      5.36719371	     16.91834360	     -5.78095024	     -4.87535721	    -11.69490835
      0.57433333	     -1.12318445	      2.72854503	     12.58515925	     -0.80685701	      0.87040280	      0.27515757	     32.54193268	     -4.45555931	    -11.33181970	    -10.63120131	      8.02272469	     -0.31931259	      2.30969319	    -21.13483060	      1.57774850	      4.48957800	    -12.92338653	     14.71255348	      5.30076139	     16.94304618	     -5.76338983	     -4.66220755	    -11.66962782
      0.57850000	     -1.06910510	      2.53795939	     12.59981539	     -0.80030867	      0.86982084	      0.27547543	     32.41446357	     -4.12653204	    -11.14934938	    -11.06284910	      7.50328058	     -1.01643147	      2.31956791	    -21.17996369	      1.24234326	      4.24614769	    -13.70731583	     14.44766789	      5.55820662	     17.17472928	     -5.66822920	     -4.35280406	    -11.55370035
      0.58266667	     -0.98277819	      2.34932969	     12.61810897	     -0.79373457	      0.86931696	      0.27578857	     32.25571000	     -3.80266904	    -11.02490130	    -11.52514237	      7.10487893	     -1.50082201	      2.42314193	    -21.23232372	      0.89722403	      3.98541636	    -14.53707925	     14.09213385	      5.79433175	     17.85052139	     -5.64034947	     -4.04859307	    -11.45825887
      0.58683333	     -0.95720977	      2.17642821	     12.62001751	     -0.78713966	      0.86875774	      0.27608532	     32.19046352	     -3.50722573	    -10.92044087	    -12.04777025	      6.53340470	     -2.01939756	      2.48604595	    -21.26102398	      0.61131880	      3.89929906	    -15.29000235	     13.69929297	      5.74993417	     18.21322912	     -5.52003339	     -3.76953591	    -11.35401176
      0.59100000	     -0.92920965	      1.97853372	     12.61988479	     -0.78048196	      0.86824906	      0.27639917	     32.10385966	     -3.18420621	    -10.82547742	    -12.53570044	      5.99873382	     -2.38693698	      2.53964046	    -21.26592561	      0.29334981	      3.77710381	    -16.07954376	     13.17442204	      5.75551545	     18.47005837	     -5.40601246	     -3.44788703	    -11.25923697
      0.59516667	     -0.86796746	      1.78469295	     12.58491591	     -0.77382376	      0.86776242	      0.27681226	     31.99936519	     -2.83098334	    -10.65254518	    -13.04622306	      5.36622306	     -3.00461382	      3.91693250	    -21.24271215	     -0.03987742	      3.44705977	    -16.98949016	     12.70458112	      5.91861334	     23.70842280	     -5.33144875	     -3.15085374	    -11.14926898
      0.59933333	     -0.81335604	      1.57714441	     12.56019633	     -0.76711750	      0.86735763	      0.27717212	     31.88311517	     -2.47266116	    -10.50259920	    -13.52362425	      4.68307349	     -3.58335610	      3.90901104	    -21.25365314	     -0.35739346	      3.36115197	    -17.81216136	     12.14964019	      5.79893448	     23.78754363	     -5.24752135	     -2.82064223	    -10.97509782
      0.60350000	     -0.78759013	      1.36628512	     12.51573724	     -0.76040524	      0.86691565	      0.27758886	     31.81896248	     -2.10637998	    -10.31202378	    -14.03915840	      3.99233193	     -4.17555797	      3.93262721	    -21.18484356	     -0.67650057	      3.18105249	    -18.72876576	     11.59016511	      5.82037175	     23.94095066	     -5.12385503	     -2.49382530	    -10.81310491
      0.60766667	     -0.76706058	      1.15071268	     12.45644636	     -0.75367176	      0.86649517	      0.27802892	     31.77582867	     -1.73188111	    -10.10889220	    -14.58686146	      3.29701335	     -4.75047419	      3.98150717	    -21.09150096	     -0.99481476	      2.99187941	    -19.67059367	     10.99202193	      5.83407181	     24.15602998	     -4.99555542	     -2.16190035	    -10.63895634
      0.61183333	     -0.75328810	      0.92808496	     12.38825271	     -0.74693381	      0.86608876	      0.27848511	     31.75655980	     -1.35089109	     -9.89434017	    -15.16958025	      2.60907237	     -5.32528905	      4.05695648	    -20.96155532	     -1.31523173	      2.80524508	    -20.66548701	     10.36106284	      5.84199040	     24.44663030	     -4.86245560	     -1.82346267	    -10.45590248
